<?xml version="1.0" encoding="utf-8"?>
<!-- Generator: Adobe Illustrator 19.0.0, SVG Export Plug-In . SVG Version: 6.00 Build 0)  -->
<svg version="1.1" id="Layer_1" xmlns="http://www.w3.org/2000/svg" xmlns:xlink="http://www.w3.org/1999/xlink" x="0px" y="0px"
	 viewBox="0 0 1652 1193.2" style="enable-background:new 0 0 1652 1193.2;" xml:space="preserve">
<style type="text/css">
	.st0{fill:#1C88C6;}
	.st1{fill:#EAE9F3;}
	.st2{fill:#676E9C;}
	.st3{fill:#6CBDE1;}
	.st4{fill:url(#SVGID_1_);}
	.st5{opacity:0.32;fill:url(#SVGID_2_);}
	.st6{fill:#AFD6FF;}
	.st7{fill:url(#SVGID_3_);}
	.st8{fill:#87A2C2;}
	.st9{fill:#BADCFF;}
	.st10{fill:#7696B5;}
	.st11{fill:#8088C2;}
	.st12{fill:#8792CE;}
	.st13{opacity:0.28;fill:#370C62;}
	.st14{fill:#FFB0B1;}
	.st15{fill:#26004A;}
	.st16{fill:#130025;}
	.st17{fill:#00158E;}
	.st18{fill:#000F6B;}
	.st19{opacity:0.53;fill:#FD5E5A;}
	.st20{fill:#320063;}
	.st21{fill:#00B3BF;}
	.st22{fill:#7881B6;}
	.st23{fill:#D81F32;}
	.st24{opacity:0.66;fill:#D81F32;}
	.st25{opacity:0.44;fill:#000F6B;}
	.st26{fill:#FC7575;}
	.st27{fill:#00123F;}
	.st28{fill:#03257D;}
	.st29{fill:#001B5E;}
	.st30{fill:#0021DB;}
	.st31{fill:#BE4800;}
	.st32{fill:#FD7B2A;}
	.st33{fill:#AB3400;}
	.st34{fill:#2C46E6;}
	.st35{fill:#2134AD;}
	.st36{fill:#CBD4FF;}
	.st37{fill:#727586;}
	.st38{fill:#DFE5FF;}
	.st39{fill:#FFFFFF;}
	.st40{fill:#6B9ECE;}
	.st41{opacity:0.18;fill:#6B9ECE;}
	.st42{fill:#FD6100;}
	.st43{fill:#FF1F20;}
</style>
<path class="st0" d="M1609.7,1193.2H105.9c-8.3,0-15.1-6.7-15.1-15.1v-0.4c0-8.3,6.7-15.1,15.1-15.1h1503.7
	c8.3,0,15.1,6.7,15.1,15.1v0.4C1624.7,1186.5,1618,1193.2,1609.7,1193.2z"/>
<path class="st1" d="M1308.1,972.4H280.7c-17.8,0-32.2-13.5-32.2-30.1L228.9,239c0-16.6,14.4-30.1,32.2-30.1h1076.2
	c17.8,0,32.2,13.5,32.2,30.1l-29.3,703.3C1340.3,959,1325.9,972.4,1308.1,972.4z"/>
<path class="st2" d="M1357.1,215.2c3.4,4.8,5.4,10.5,5.4,16.7l-29.3,703.3c0,16.6-14.4,30.1-32.2,30.1H273.6
	c-7.4,0-14.3-2.3-19.7-6.3c5.8,8.1,15.6,13.4,26.8,13.4h1027.3c17.8,0,32.2-13.5,32.2-30.1l29.3-703.3
	C1369.6,229.3,1364.7,220.7,1357.1,215.2z"/>
<path class="st3" d="M293.2,890.1l-19.5-630.4c0-16.6,14.4-30.1,32.2-30.1h998.1c17.8,0,32.2,13.5,32.2,30.1l-29.3,630.4
	c0,16.6-14.4,30.1-32.2,30.1H325.4C307.6,920.1,293.2,906.7,293.2,890.1z"/>
<linearGradient id="SVGID_1_" gradientUnits="userSpaceOnUse" x1="844.3049" y1="1069.136" x2="791.5728" y2="257.6558">
	<stop  offset="0" style="stop-color:#0082C1"/>
	<stop  offset="1" style="stop-color:#8DDCFF"/>
</linearGradient>
<path class="st4" d="M291.7,905.5l-19.5-630.4c0-16.6,14.4-30.1,32.2-30.1h998.1c17.8,0,32.2,13.5,32.2,30.1l-29.3,630.4
	c0,16.6-14.4,30.1-32.2,30.1H323.9C306.1,935.6,291.7,922.1,291.7,905.5z"/>
<linearGradient id="SVGID_2_" gradientUnits="userSpaceOnUse" x1="830.5904" y1="1028.7172" x2="798.4893" y2="534.7226">
	<stop  offset="0" style="stop-color:#0082C1"/>
	<stop  offset="1" style="stop-color:#8DDCFF"/>
</linearGradient>
<path class="st5" d="M1133.2,620.9c-121.1,213-332,119-619,75.1c-96.4-14.7-170.8,16.6-227.1,64.8l4.5,144.7
	c0,16.6,14.4,30.1,32.2,30.1h949.2c17.8,0,32.2-13.5,32.2-30.1l20.1-432.1C1236.9,515.7,1165.1,564.9,1133.2,620.9z"/>
<g>
	<path class="st6" d="M1267.6,897.5h-18c-0.5,0-1-0.4-1-1c0-0.5,0.4-1,1-1h16.1l0.3-5.4c0-0.5,0.5-1,1-0.9c0.5,0,1,0.5,0.9,1
		L1267.6,897.5z M1226.2,897.5h-23.4c-0.5,0-1-0.4-1-1c0-0.5,0.4-1,1-1h23.4c0.5,0,1,0.4,1,1
		C1227.2,897.1,1226.7,897.5,1226.2,897.5z M1179.3,897.5h-23.4c-0.5,0-1-0.4-1-1c0-0.5,0.4-1,1-1h23.4c0.5,0,1,0.4,1,1
		C1180.3,897.1,1179.9,897.5,1179.3,897.5z M1132.4,897.5H1109c-0.5,0-1-0.4-1-1c0-0.5,0.4-1,1-1h23.4c0.5,0,1,0.4,1,1
		C1133.4,897.1,1133,897.5,1132.4,897.5z M1085.6,897.5h-23.4c-0.5,0-1-0.4-1-1c0-0.5,0.4-1,1-1h23.4c0.5,0,1,0.4,1,1
		C1086.5,897.1,1086.1,897.5,1085.6,897.5z M1038.7,897.5h-23.4c-0.5,0-1-0.4-1-1c0-0.5,0.4-1,1-1h23.4c0.5,0,1,0.4,1,1
		C1039.7,897.1,1039.2,897.5,1038.7,897.5z M991.8,897.5h-23.4c-0.5,0-1-0.4-1-1c0-0.5,0.4-1,1-1h23.4c0.5,0,1,0.4,1,1
		C992.8,897.1,992.4,897.5,991.8,897.5z M944.9,897.5h-23.4c-0.5,0-1-0.4-1-1c0-0.5,0.4-1,1-1h23.4c0.5,0,1,0.4,1,1
		C945.9,897.1,945.5,897.5,944.9,897.5z M898.1,897.5h-23.4c-0.5,0-1-0.4-1-1c0-0.5,0.4-1,1-1h23.4c0.5,0,1,0.4,1,1
		C899,897.1,898.6,897.5,898.1,897.5z M851.2,897.5h-23.4c-0.5,0-1-0.4-1-1c0-0.5,0.4-1,1-1h23.4c0.5,0,1,0.4,1,1
		C852.2,897.1,851.7,897.5,851.2,897.5z M804.3,897.5h-23.4c-0.5,0-1-0.4-1-1c0-0.5,0.4-1,1-1h23.4c0.5,0,1,0.4,1,1
		C805.3,897.1,804.9,897.5,804.3,897.5z M757.4,897.5H734c-0.5,0-1-0.4-1-1c0-0.5,0.4-1,1-1h23.4c0.5,0,1,0.4,1,1
		C758.4,897.1,758,897.5,757.4,897.5z M710.6,897.5h-23.4c-0.5,0-1-0.4-1-1c0-0.5,0.4-1,1-1h23.4c0.5,0,1,0.4,1,1
		C711.5,897.1,711.1,897.5,710.6,897.5z M663.7,897.5h-23.4c-0.5,0-1-0.4-1-1c0-0.5,0.4-1,1-1h23.4c0.5,0,1,0.4,1,1
		C664.7,897.1,664.2,897.5,663.7,897.5z M616.8,897.5h-23.4c-0.5,0-1-0.4-1-1c0-0.5,0.4-1,1-1h23.4c0.5,0,1,0.4,1,1
		C617.8,897.1,617.4,897.5,616.8,897.5z M569.9,897.5h-23.4c-0.5,0-1-0.4-1-1c0-0.5,0.4-1,1-1h23.4c0.5,0,1,0.4,1,1
		C570.9,897.1,570.5,897.5,569.9,897.5z M523.1,897.5h-23.4c-0.5,0-1-0.4-1-1c0-0.5,0.4-1,1-1h23.4c0.5,0,1,0.4,1,1
		C524,897.1,523.6,897.5,523.1,897.5z M476.2,897.5h-23.4c-0.5,0-1-0.4-1-1c0-0.5,0.4-1,1-1h23.4c0.5,0,1,0.4,1,1
		C477.2,897.1,476.7,897.5,476.2,897.5z M429.3,897.5h-23.4c-0.5,0-1-0.4-1-1c0-0.5,0.4-1,1-1h23.4c0.5,0,1,0.4,1,1
		C430.3,897.1,429.9,897.5,429.3,897.5z M382.4,897.5H359c-0.5,0-1-0.4-1-1c0-0.5,0.4-1,1-1h23.4c0.5,0,1,0.4,1,1
		C383.4,897.1,383,897.5,382.4,897.5z M335.6,897.5h-6l-0.8-24.4c0-0.5,0.4-1,0.9-1c0.6,0,1,0.4,1,0.9l0.7,22.5h4.1c0.5,0,1,0.4,1,1
		C336.5,897.1,336.1,897.5,335.6,897.5z M1268.1,867.7C1268.1,867.7,1268,867.7,1268.1,867.7c-0.6,0-1-0.5-1-1l1.1-23.4
		c0-0.5,0.5-1,1-0.9c0.5,0,1,0.5,0.9,1l-1.1,23.4C1269,867.3,1268.6,867.7,1268.1,867.7z M329,850.7c-0.5,0-1-0.4-1-0.9l-0.7-23.4
		c0-0.5,0.4-1,0.9-1c0.6,0,1,0.4,1,0.9l0.7,23.4C330,850.2,329.6,850.7,329,850.7C329.1,850.7,329.1,850.7,329,850.7z M1270.2,820.9
		C1270.2,820.9,1270.2,820.9,1270.2,820.9c-0.6,0-1-0.5-1-1l1.1-23.4c0-0.5,0.5-1,1-0.9c0.5,0,1,0.5,0.9,1l-1.1,23.4
		C1271.2,820.5,1270.8,820.9,1270.2,820.9z M327.6,803.8c-0.5,0-1-0.4-1-0.9l-0.7-23.4c0-0.5,0.4-1,0.9-1c0.5,0,1,0.4,1,0.9
		l0.7,23.4C328.6,803.4,328.2,803.8,327.6,803.8C327.6,803.8,327.6,803.8,327.6,803.8z M1272.4,774.1
		C1272.4,774.1,1272.4,774.1,1272.4,774.1c-0.6,0-1-0.5-1-1l1.1-23.4c0-0.5,0.5-1,1-0.9c0.5,0,1,0.5,0.9,1l-1.1,23.4
		C1273.4,773.7,1272.9,774.1,1272.4,774.1z M326.1,757c-0.5,0-1-0.4-1-0.9l-0.7-23.4c0-0.5,0.4-1,0.9-1c0.5,0,1,0.4,1,0.9l0.7,23.4
		C327.1,756.5,326.7,756.9,326.1,757C326.2,757,326.2,757,326.1,757z M1274.6,727.3C1274.6,727.3,1274.6,727.3,1274.6,727.3
		c-0.6,0-1-0.5-1-1l1.1-23.4c0-0.5,0.5-1,1-0.9c0.5,0,1,0.5,0.9,1l-1.1,23.4C1275.6,726.9,1275.1,727.3,1274.6,727.3z M324.7,710.1
		c-0.5,0-1-0.4-1-0.9l-0.7-23.4c0-0.5,0.4-1,0.9-1c0.6,0,1,0.4,1,0.9l0.7,23.4C325.7,709.6,325.3,710.1,324.7,710.1
		C324.7,710.1,324.7,710.1,324.7,710.1z M1276.8,680.4C1276.8,680.4,1276.7,680.4,1276.8,680.4c-0.6,0-1-0.5-1-1l1.1-23.4
		c0-0.5,0.5-1,1-0.9c0.5,0,1,0.5,0.9,1l-1.1,23.4C1277.7,680,1277.3,680.4,1276.8,680.4z M323.2,663.3c-0.5,0-1-0.4-1-0.9l-0.7-23.4
		c0-0.5,0.4-1,0.9-1c0.6,0,1,0.4,1,0.9l0.7,23.4C324.2,662.8,323.8,663.2,323.2,663.3C323.3,663.3,323.2,663.3,323.2,663.3z
		 M1279,633.6C1278.9,633.6,1278.9,633.6,1279,633.6c-0.6,0-1-0.5-1-1l1.1-23.4c0-0.5,0.5-1,1-0.9c0.5,0,1,0.5,0.9,1l-1.1,23.4
		C1279.9,633.2,1279.5,633.6,1279,633.6z M321.8,616.4c-0.5,0-1-0.4-1-0.9l-0.7-23.4c0-0.5,0.4-1,0.9-1c0.6,0,1,0.4,1,0.9l0.7,23.4
		C322.8,615.9,322.4,616.4,321.8,616.4C321.8,616.4,321.8,616.4,321.8,616.4z M1281.1,586.8C1281.1,586.8,1281.1,586.8,1281.1,586.8
		c-0.6,0-1-0.5-1-1l1.1-23.4c0-0.5,0.5-1,1-0.9c0.5,0,1,0.5,0.9,1l-1.1,23.4C1282.1,586.4,1281.6,586.8,1281.1,586.8z M320.3,569.6
		c-0.5,0-1-0.4-1-0.9l-0.7-23.4c0-0.5,0.4-1,0.9-1c0.6,0,1,0.4,1,0.9l0.7,23.4C321.3,569.1,320.9,569.5,320.3,569.6
		C320.4,569.6,320.3,569.6,320.3,569.6z M1283.3,540C1283.3,540,1283.3,540,1283.3,540c-0.6,0-1-0.5-1-1l1.1-23.4c0-0.5,0.6-1,1-0.9
		c0.5,0,1,0.5,0.9,1l-1.1,23.4C1284.3,539.6,1283.8,540,1283.3,540z M318.9,522.7c-0.5,0-1-0.4-1-0.9l-0.7-23.4c0-0.5,0.4-1,0.9-1
		c0.5-0.1,1,0.4,1,0.9l0.7,23.4C319.9,522.2,319.4,522.7,318.9,522.7C318.9,522.7,318.9,522.7,318.9,522.7z M1285.5,493.1
		C1285.5,493.1,1285.5,493.1,1285.5,493.1c-0.6,0-1-0.5-1-1l1.1-23.4c0-0.5,0.5-1,1-0.9c0.5,0,1,0.5,0.9,1l-1.1,23.4
		C1286.4,492.7,1286,493.1,1285.5,493.1z M317.4,475.9c-0.5,0-1-0.4-1-0.9l-0.7-23.4c0-0.5,0.4-1,0.9-1c0.5,0,1,0.4,1,0.9l0.7,23.4
		C318.4,475.4,318,475.8,317.4,475.9C317.4,475.9,317.4,475.9,317.4,475.9z M1287.7,446.3C1287.6,446.3,1287.6,446.3,1287.7,446.3
		c-0.6,0-1-0.5-1-1l1.1-23.4c0-0.5,0.5-1,1-0.9c0.5,0,1,0.5,0.9,1l-1.1,23.4C1288.6,445.9,1288.2,446.3,1287.7,446.3z M316,429
		c-0.5,0-1-0.4-1-0.9l-0.7-23.4c0-0.5,0.4-1,0.9-1c0.5,0,1,0.4,1,0.9L317,428C317,428.5,316.5,429,316,429C316,429,316,429,316,429z
		 M1289.8,399.5C1289.8,399.5,1289.8,399.5,1289.8,399.5c-0.6,0-1-0.5-1-1l1.1-23.4c0-0.5,0.5-1,1-0.9c0.5,0,1,0.5,0.9,1l-1.1,23.4
		C1290.8,399.1,1290.4,399.5,1289.8,399.5z M314.5,382.1c-0.5,0-1-0.4-1-0.9l-0.7-23.4c0-0.5,0.4-1,0.9-1c0.6,0,1,0.4,1,0.9
		l0.7,23.4C315.5,381.7,315.1,382.1,314.5,382.1C314.5,382.1,314.5,382.1,314.5,382.1z M1292,352.7
		C1292,352.7,1292,352.7,1292,352.7c-0.6,0-1-0.5-1-1l1.1-23.4c0-0.5,0.5-1,1-0.9c0.5,0,1,0.5,0.9,1l-1.1,23.4
		C1293,352.3,1292.5,352.7,1292,352.7z M313.1,335.3c-0.5,0-1-0.4-1-0.9l-0.7-23.4c0-0.5,0.4-1,0.9-1c0.5,0,1,0.4,1,0.9l0.7,23.4
		C314.1,334.8,313.6,335.3,313.1,335.3C313.1,335.3,313.1,335.3,313.1,335.3z M1294.2,305.8C1294.2,305.8,1294.2,305.8,1294.2,305.8
		c-0.6,0-1-0.5-1-1l0.9-19.7h-1.6c-0.5,0-1-0.4-1-1c0-0.5,0.4-1,1-1h3.7l-1,21.8C1295.1,305.4,1294.7,305.8,1294.2,305.8z
		 M311.6,288.4c-0.5,0-1-0.4-1-0.9l-0.1-4.4h21.1c0.5,0,1,0.4,1,1c0,0.5-0.4,1-1,1h-19.1l0.1,2.4C312.6,288,312.2,288.4,311.6,288.4
		C311.6,288.4,311.6,288.4,311.6,288.4z M1269.1,285.1h-23.4c-0.5,0-1-0.4-1-1c0-0.5,0.4-1,1-1h23.4c0.5,0,1,0.4,1,1
		C1270.1,284.6,1269.6,285.1,1269.1,285.1z M1222.2,285.1h-23.4c-0.5,0-1-0.4-1-1c0-0.5,0.4-1,1-1h23.4c0.5,0,1,0.4,1,1
		C1223.2,284.6,1222.7,285.1,1222.2,285.1z M1175.3,285.1h-23.4c-0.5,0-1-0.4-1-1c0-0.5,0.4-1,1-1h23.4c0.5,0,1,0.4,1,1
		C1176.3,284.6,1175.9,285.1,1175.3,285.1z M1128.5,285.1H1105c-0.5,0-1-0.4-1-1c0-0.5,0.4-1,1-1h23.4c0.5,0,1,0.4,1,1
		C1129.4,284.6,1129,285.1,1128.5,285.1z M1081.6,285.1h-23.4c-0.5,0-1-0.4-1-1c0-0.5,0.4-1,1-1h23.4c0.5,0,1,0.4,1,1
		C1082.6,284.6,1082.1,285.1,1081.6,285.1z M1034.7,285.1h-23.4c-0.5,0-1-0.4-1-1c0-0.5,0.4-1,1-1h23.4c0.5,0,1,0.4,1,1
		C1035.7,284.6,1035.2,285.1,1034.7,285.1z M987.8,285.1h-23.4c-0.5,0-1-0.4-1-1c0-0.5,0.4-1,1-1h23.4c0.5,0,1,0.4,1,1
		C988.8,284.6,988.4,285.1,987.8,285.1z M941,285.1h-23.4c-0.5,0-1-0.4-1-1c0-0.5,0.4-1,1-1H941c0.5,0,1,0.4,1,1
		C941.9,284.6,941.5,285.1,941,285.1z M894.1,285.1h-23.4c-0.5,0-1-0.4-1-1c0-0.5,0.4-1,1-1h23.4c0.5,0,1,0.4,1,1
		C895.1,284.6,894.6,285.1,894.1,285.1z M847.2,285.1h-23.4c-0.5,0-1-0.4-1-1c0-0.5,0.4-1,1-1h23.4c0.5,0,1,0.4,1,1
		C848.2,284.6,847.7,285.1,847.2,285.1z M800.3,285.1h-23.4c-0.5,0-1-0.4-1-1c0-0.5,0.4-1,1-1h23.4c0.5,0,1,0.4,1,1
		C801.3,284.6,800.9,285.1,800.3,285.1z M753.5,285.1H730c-0.5,0-1-0.4-1-1c0-0.5,0.4-1,1-1h23.4c0.5,0,1,0.4,1,1
		C754.4,284.6,754,285.1,753.5,285.1z M706.6,285.1h-23.4c-0.5,0-1-0.4-1-1c0-0.5,0.4-1,1-1h23.4c0.5,0,1,0.4,1,1
		C707.6,284.6,707.1,285.1,706.6,285.1z M659.7,285.1h-23.4c-0.5,0-1-0.4-1-1c0-0.5,0.4-1,1-1h23.4c0.5,0,1,0.4,1,1
		C660.7,284.6,660.2,285.1,659.7,285.1z M612.8,285.1h-23.4c-0.5,0-1-0.4-1-1c0-0.5,0.4-1,1-1h23.4c0.5,0,1,0.4,1,1
		C613.8,284.6,613.4,285.1,612.8,285.1z M566,285.1h-23.4c-0.5,0-1-0.4-1-1c0-0.5,0.4-1,1-1H566c0.5,0,1,0.4,1,1
		C566.9,284.6,566.5,285.1,566,285.1z M519.1,285.1h-23.4c-0.5,0-1-0.4-1-1c0-0.5,0.4-1,1-1h23.4c0.5,0,1,0.4,1,1
		C520.1,284.6,519.6,285.1,519.1,285.1z M472.2,285.1h-23.4c-0.5,0-1-0.4-1-1c0-0.5,0.4-1,1-1h23.4c0.5,0,1,0.4,1,1
		C473.2,284.6,472.7,285.1,472.2,285.1z M425.3,285.1h-23.4c-0.5,0-1-0.4-1-1c0-0.5,0.4-1,1-1h23.4c0.5,0,1,0.4,1,1
		C426.3,284.6,425.9,285.1,425.3,285.1z M378.5,285.1H355c-0.5,0-1-0.4-1-1c0-0.5,0.4-1,1-1h23.4c0.5,0,1,0.4,1,1
		C379.4,284.6,379,285.1,378.5,285.1z"/>
</g>
<linearGradient id="SVGID_3_" gradientUnits="userSpaceOnUse" x1="893.5645" y1="930.4639" x2="905.2833" y2="375.7761">
	<stop  offset="0" style="stop-color:#6EA7E8"/>
	<stop  offset="1" style="stop-color:#9AD2FF"/>
</linearGradient>
<path class="st7" d="M771.9,381.6c0,0,13.9,140.6,7.9,188.5l-34.3,363.3h295.9c0,0-16.6-309.6-16.6-333s-4.9-218.7-4.9-218.7
	l-46.4-23.4l-116.7-1.5L771.9,381.6z"/>
<g>
	<path class="st8" d="M852,358.9l-58.4,16.4c0,0,23.4,116.8,37.3,130.7c14,14-2.4,24.4,9.3,36.1c11.7,11.7,76.7,99.8,76.7,99.8
		L852,358.9z"/>
	<path class="st8" d="M976.5,362.7l-59.6,279.1c0,0,63.3-111.9,68.8-117.4c5.4-5.4,0-28.3,0-39.1s33.7-104.1,33.7-104.1
		S988.6,362.7,976.5,362.7z"/>
</g>
<g>
	<path class="st9" d="M856.9,356.7l-62.5,6.3c0,0,22.6,115,36.5,128.9c14,14-2.4,24.4,9.3,36.1c11.7,11.7,76.7,113.8,76.7,113.8
		L856.9,356.7z"/>
	<path class="st9" d="M973.6,358.2l-56.6,283.7c0,0,63.3-125.9,68.8-131.3c5.4-5.4,0-28.3,0-39.1s34.3-99.6,34.3-99.6
		S985.7,358.2,973.6,358.2z"/>
</g>
<polygon class="st10" points="908.6,933.4 916.9,641.9 915.2,933.4 "/>
<rect x="717.2" y="972.4" class="st11" width="222.7" height="23.4"/>
<polygon class="st12" points="920.8,1104.1 736.3,1104.1 730.4,995.9 926.7,995.9 "/>
<path class="st13" d="M926.7,995.9H730.4l5.9,108.2h24.3c2.4-16.8,7.1-34.8,16.3-49.2c16.5-26,97.7-36.3,148.9-40.2L926.7,995.9z"/>
<path class="st2" d="M1087.4,1162.7h-502l0,0c0-32.4,26.2-58.6,58.6-58.6h384.8C1061.1,1104.1,1087.4,1130.3,1087.4,1162.7
	L1087.4,1162.7z"/>
<path class="st14" d="M546,396.2L529,335.2L454,354.4c0,0,10.7,33.3,18.1,37.8c5.5,3.4,22,13.5,30.4,18.6l0,0l67,132.9l48.2-59.6
	L546,396.2z"/>
<path class="st15" d="M900.3,54.3c0,0,57.1-7,81.5,4.7c24.4,11.6,72.3,58.7,59.6,150c0,0,10.3,3.3,13.2,17.2c2.9,14,3.2,38.9-21,62
	c-24.2,23.1-64.9,20.5-85.9,20.5s-80.1-17.7-95.2-50.3C837.3,225.7,900.3,54.3,900.3,54.3z"/>
<path class="st16" d="M928,67.6c-15.3-1.4-28.1,5.6-38.3,17.1c-13,38.1-33.7,103.4-38.5,143.7c2.1,16.2,7.5,32.3,15.2,45
	c1.3,2.2,2.8,4.3,4.2,6.3c20.2,15.9,50,25.5,68.3,28.2c56.9-7.7,73-60.2,71.6-118.2c-0.4-15.6,10.8-64.2-13.4-95.7
	C980.8,72.9,952.8,65.1,928,67.6z"/>
<path class="st14" d="M871,267.3c0,0,2.9,39.6,0,57.6s-14.2,31.7-14.2,31.7l60.1,285.2l56.6-283.7c0,0-14.1-8.6-18.1-33.2
	c-4-24.6-3.9-87.9-3.9-87.9L871,267.3z"/>
<path class="st17" d="M916.9,641.9L961,421c-33.6,3.7-67-0.6-91.8-5.7L916.9,641.9z"/>
<path class="st18" d="M961,421c-0.3,0-0.6,0.1-0.9,0.1c-11,45.1-36.3,145.1-44.9,153.7c-8.3,8.3-33.5-101.9-45.9-159.5
	c0,0,0,0-0.1,0l47.7,226.5L961,421z"/>
<path class="st19" d="M883.7,262.6c8.6,33.6,29.5,65.2,69.3,54.7c0.5-0.1,0.9-0.3,1.4-0.4c-2.9-28.1-2.9-79.8-2.9-79.8L883.7,262.6z
	"/>
<path class="st14" d="M938.9,75.4c0,0,34.7-5.4,53.7,22.5c19,27.8,10.3,74.7,10.3,86.4c0,11.7,5.6,96.7-49.8,109.9
	c-55.4,13.2-74.2-47.4-74.2-84S892.4,80,938.9,75.4z"/>
<path class="st19" d="M900.6,108.1c-1.9,4.2-3.8,8.7-5.4,13.4c19.2-5.8,38.7-10.3,58.2-13.3c7.8,27.1,24.4,45.7,51.5,45.7
	c0.3-10.8-0.3-23-3.1-34.4C970,106.4,933.9,87.8,900.6,108.1z"/>
<path class="st14" d="M534.8,338.9c-0.7-0.8-56.1-53.6-67.1-50.3c-18.3,4.8,22.3,35,26.7,40.7c2.2,2.8,4.2,6.4,5.9,9.8
	c-1.4,0.4-2.8,0.8-4,1.1c-10.4,2.5-38.3,7.7-42.3,14.2c0,0-0.8,36.5,8.8,36.7c9.6,0.2,19.3-3.3,29.6-2.3c5.1,0.5,10.4-2,14.4-4.7
	c0.6-0.4,1.2-0.9,1.8-1.3c-1.3,2.2-1.7,4.8-0.3,7.5c4.9,10,38.9-7.2,40.4-13.6C550.3,370.4,542.7,348.6,534.8,338.9z M527.1,371.9
	c-3.1,0.8-9.1,2.9-13.7,6.2c-1.3-3.4-7.8-21-6.7-28c0,0,0,0,0,0c4.7-5,15.1-5.2,20.1-3l0,0c0.7,0.6,1.2,1.4,1.4,2.5
	C529.8,356.2,533.2,370.5,527.1,371.9z"/>
<path class="st9" d="M530.7,476.3c0,0,79.1,203.1,109.4,218.7c30.3,15.6,141.2-153.3,141.2-153.3s4.3-160.1-9.4-160.1
	c-13.7,0-69.9,66.9-86.1,107.1c-16.5,40.9-15.9,61.6-38,21.8c-22.6-40.6-62.3-95.2-62.3-95.2C562.9,438.1,530.7,476.3,530.7,476.3z"
	/>
<path class="st20" d="M981.9,59.3c0,0-19.5-2.4-31.3,6.8c-11.7,9.3-37.6,13.7-52.7,85.4c-15.1,71.8-2.9,80.1-2.9,80.1
	s16.1,33.2-4.7,58.6c-20.7,25.4-61.4,15.8-84.2,2.4c-33.1-19.4-27.2-86.8-13.3-130.9c1.9-6.2,2.9-9.8,5.2-15
	c4.4-9.9,5.8-21.3,12.2-31.7C830.7,81.4,868,50.6,934,52.3C934,52.3,963.8,50.5,981.9,59.3z"/>
<g>
	<path class="st16" d="M799.4,141.5c-4.1,12.4-3.5,10.6-6.6,20.4c-0.7,2.1-1.3,4.2-1.9,6.4c13-7.5,15.5-9.6,30.4-17.1
		c27.2-13.9,56.4-25.1,86.1-33.1c0.6-1.6,1.2-3.1,1.8-4.6C871,117,833.1,123.9,799.4,141.5z"/>
</g>
<path class="st21" d="M807.7,116.4c72.4-37.9,121.1-41.3,204.2-35.9v20c-69.7,0.3-138.6,19.2-196.5,48.7c-15.6,8-23.9,13.4-24,13.5
	L807.7,116.4z"/>
<ellipse class="st12" cx="1009.3" cy="93" rx="54.9" ry="58.7"/>
<ellipse class="st1" cx="1011" cy="93" rx="53.2" ry="58.7"/>
<g>
	<ellipse class="st22" cx="1009.3" cy="93" rx="54.9" ry="58.7"/>
	<ellipse class="st3" cx="1011" cy="93" rx="53.2" ry="58.7"/>
	<path class="st1" d="M990.7,81.8c0-19.5,8.6-36.8,21.9-47.4c-0.5,0-1.1,0-1.6,0c-29.4,0-53.2,26.3-53.2,58.7
		c0,32.4,23.8,58.7,53.2,58.7c11.7,0,22.5-4.2,31.3-11.2C1013.7,139.5,990.7,113.6,990.7,81.8z"/>
</g>
<ellipse class="st12" cx="1011.9" cy="90.5" rx="7.9" ry="8.7"/>
<g>
	<path class="st0" d="M396.8,359.1c-0.7,0-1.4-0.2-2.1-0.6c-1.7-1.2-2.1-3.4-0.9-5.1l139.1-201.6c1.2-1.7,3.4-2.1,5.1-0.9
		c1.7,1.2,2.1,3.4,0.9,5.1L399.8,357.6C399.1,358.6,397.9,359.1,396.8,359.1z"/>
</g>
<g>
	<path class="st0" d="M158,613.3c-0.9,0-1.8-0.3-2.5-1c-1.5-1.4-1.6-3.7-0.2-5.2l231-246.9c1.4-1.5,3.7-1.6,5.2-0.2
		c1.5,1.4,1.6,3.7,0.2,5.2l-231,246.9C160,612.9,159,613.3,158,613.3z"/>
</g>
<g>
	<path class="st0" d="M389,366.4c-0.7,0-1.5-0.2-2.1-0.7L201.1,232.5c-1.6-1.2-2-3.5-0.8-5.1c1.2-1.6,3.5-2,5.1-0.8l185.8,133.1
		c1.6,1.2,2,3.5,0.8,5.1C391.2,365.9,390.1,366.4,389,366.4z"/>
</g>
<g>
	<path class="st0" d="M488,791.3c-1.7,0-3.2-1.1-3.6-2.8l-99.1-424.9c-0.5-2,0.8-3.9,2.7-4.4c2-0.5,3.9,0.8,4.4,2.7l99.1,424.9
		c0.5,2-0.8,3.9-2.7,4.4C488.6,791.2,488.3,791.3,488,791.3z"/>
</g>
<circle class="st0" cx="389" cy="362.7" r="41.2"/>
<circle class="st9" cx="389" cy="360.7" r="26.3"/>
<g>
	<path class="st9" d="M195,322.6H19.1C8.5,322.6,0,314,0,303.5V155.6c0-10.5,8.5-19.1,19.1-19.1H195c10.5,0,19.1,8.5,19.1,19.1
		v147.9C214.1,314,205.5,322.6,195,322.6z"/>
	<path class="st0" d="M203.4,138.5c1.3,2.6,2,5.4,2,8.5v147.9c0,10.5-8.5,19.1-19.1,19.1H10.4c-3,0-5.9-0.7-8.5-2
		c3.1,6.3,9.6,10.6,17.1,10.6H195c10.5,0,19.1-8.5,19.1-19.1V155.6C214.1,148.1,209.7,141.6,203.4,138.5z"/>
</g>
<g>
	<path class="st9" d="M195,688.9H19.1C8.5,688.9,0,680.4,0,669.8V522c0-10.5,8.5-19.1,19.1-19.1H195c10.5,0,19.1,8.5,19.1,19.1
		v147.9C214.1,680.4,205.5,688.9,195,688.9z"/>
	<path class="st0" d="M203.4,504.9c1.3,2.6,2,5.4,2,8.5v147.9c0,10.5-8.5,19.1-19.1,19.1H10.4c-3,0-5.9-0.7-8.5-2
		c3.1,6.3,9.6,10.6,17.1,10.6H195c10.5,0,19.1-8.5,19.1-19.1V522C214.1,514.5,209.7,508,203.4,504.9z"/>
</g>
<g>
	<path class="st9" d="M425.4,186.1h203.4c11.3,0,20.4-9.1,20.4-20.4V20.4c0-11.3-9.1-20.4-20.4-20.4H425.4C414.2,0,405,9.1,405,20.4
		v145.3C405,176.9,414.2,186.1,425.4,186.1z"/>
	<path class="st0" d="M417.2,2c-1.4,2.6-2.3,5.4-2.3,8.5v147.9c0,10.5,9.8,19.1,21.8,19.1h200.7c3.5,0,6.7-0.7,9.7-2
		c-3.6,6.3-11,10.6-19.5,10.6H426.8c-12,0-21.8-8.5-21.8-19.1V19.1C405,11.6,410,5.1,417.2,2z"/>
</g>
<g>
	<path class="st9" d="M399.8,723.5h203.4c11.3,0,20.4,9.1,20.4,20.4v145.3c0,11.3-9.1,20.4-20.4,20.4H399.8
		c-11.3,0-20.4-9.1-20.4-20.4V743.9C379.4,732.7,388.5,723.5,399.8,723.5z"/>
	<path class="st0" d="M391.5,907.6c-1.4-2.5-2.3-5.4-2.3-8.5V751.3c0-10.5,9.8-19.1,21.8-19.1h200.7c3.5,0,6.7,0.7,9.7,2
		c-3.6-6.3-11-10.6-19.5-10.6H401.2c-12,0-21.8,8.5-21.8,19.1v147.9C379.4,898,384.3,904.5,391.5,907.6z"/>
</g>
<g>
	<circle class="st23" cx="71.2" cy="192.3" r="6.3"/>
	<circle class="st23" cx="144.3" cy="174.6" r="4"/>
	<path class="st23" d="M102.9,288.5c-30.4,0-55.1-24.7-55.1-55.1c0-13.7,5-26.8,14.1-36.8l1.4-1.5l1,1.8c0.6,1.1,1.5,2,2.5,2.7
		l1.4,0.9l-1.1,1.3c-7.7,8.7-12,19.9-12,31.6c0,26.3,21.4,47.7,47.7,47.7c25,0,45.6-19.2,47.6-43.9c-9.2-1.8-15.9-9.9-15.9-19.4v-35
		l4.3-6.5l1.3,1.6c0.7,0.9,1.7,1.6,2.9,1.9l2,0.5l-3.1,4.7v32.8c0,6.8,5.6,12.4,12.4,12.4c6.8,0,12.4-5.6,12.4-12.4v-32.7l-3.5-4.8
		l2-0.6c1.1-0.4,2.1-1.1,2.8-2l1.2-1.7l5,6.7v35.2c0,9.6-6.9,17.7-16.2,19.4C155.8,266.1,131.9,288.5,102.9,288.5z"/>
	<circle class="st23" cx="163.4" cy="174.6" r="4"/>
	<polygon class="st23" points="125.6,222.3 110.7,222.3 110.7,207.4 94.2,207.4 94.2,222.3 79.3,222.3 79.3,238.8 94.2,238.8 
		94.2,253.7 110.7,253.7 110.7,238.8 125.6,238.8 	"/>
</g>
<g>
	<g>
		<path class="st23" d="M564,95.8h-4.8l-9.9-13.6l-7.5,30.7l-5.7-53.3l-15.4,34.7L513.9,82l-8.6,15.5l-11.8-14.4l-5.3,26.2l-5-45.1
			l-16.9,30.6h-40.8c-1,0-1.9,0.8-1.9,1.9l0,0c0,1,0.8,1.9,1.9,1.9h44.7l9.2-16.7l7.1,63.9L496.8,95l9.5,11.6l7.6-13.7l7.4,13.4
			l11.5-25.8l7,64.9l12.4-50.9l3.6,4.9h10.8C565.6,98.2,564.7,97,564,95.8z"/>
		<path class="st23" d="M600.1,70.9c0,0,6.3-8.8,18.8-8.8c11.2,0,18.8,9,18.8,19.5c0,12.1-10.5,26.5-37.7,39
			c-27.2-12.5-37.7-26.9-37.7-39c0-10.5,7.7-19.5,18.8-19.5C593.7,62.1,600.1,70.9,600.1,70.9z"/>
	</g>
</g>
<g>
	<path class="st24" d="M546.4,847l-96.9-12.4c-6.2-0.8-10.5-6.4-9.7-12.6l6.6-51.2c0.8-6.2,6.4-10.5,12.6-9.7l96.9,12.4
		c6.2,0.8,10.5,6.4,9.7,12.6l-6.6,51.2C558.2,843.4,552.5,847.8,546.4,847z"/>
	<path class="st23" d="M487.2,780.7l-2.6-6c-0.8-1.7-2.5-2.8-4.4-2.8h-44.7c-2.6,0-4.8,2.1-4.8,4.8V807h0.1v57.2
		c0,2.6,2.1,4.8,4.8,4.8h131.9c2.6,0,4.8-2.1,4.8-4.8v-76c0-2.6-2.1-4.8-4.8-4.8h-75.9C489.7,783.5,488,782.4,487.2,780.7z"/>
	<circle class="st23" cx="504" cy="827.3" r="26.4"/>
	<polygon class="st23" points="524.5,820.1 511.3,820.1 511.3,806.8 496.7,806.8 496.7,820.1 483.4,820.1 483.4,834.7 496.7,834.7 
		496.7,847.9 511.3,847.9 511.3,834.7 524.5,834.7 	"/>
</g>
<g>
	<circle class="st23" cx="96.6" cy="567" r="13.1"/>
	<rect x="116.6" y="584.3" class="st23" width="19" height="18.3"/>
	<rect x="119.4" y="603.7" class="st23" width="13.4" height="5.1"/>
	<path class="st23" d="M114.5,569.2c0-4.1-1.3-8-3.4-11.2v-12.6c3,0,5.5-2.5,5.5-5.5v-10h19v10c0,3,2.5,5.5,5.5,5.5v32.4
		c0,2.8-2.3,5.1-5.1,5.1h-19.8c-2.1,0-4-1.3-4.7-3.2C113.3,576.7,114.5,573,114.5,569.2z"/>
	<rect x="112" y="523.2" class="st23" width="28.2" height="6.7"/>
	<path class="st23" d="M74.6,567.3c-0.1,0.6-0.1,1.3-0.1,1.9c0,9.6,6.8,17.6,15.8,19.5c-2.8,2-5,4.7-6.2,8.1
		c-2.2,5.9-1.2,12.4,1.5,17.9c3.2,6.6,8.7,11.8,15,15.5l-2.4,8.3C65.3,629.3,51.4,592.9,74.6,567.3z"/>
	<rect x="82.9" y="629.9" class="st23" width="27.4" height="18.4"/>
	<path class="st23" d="M60,658.2h101.9v-3c0-3.7-3-6.8-6.8-6.8H66.8c-3.7,0-6.8,3-6.8,6.8V658.2z"/>
	<rect x="100" y="615.1" class="st23" width="52.4" height="9.2"/>
</g>
<path class="st9" d="M1019.4,381.3c0,0-10.1,111.6,5.1,196.6c3.8,21.4,62.8,30.8,95,55.1c53.7,40.4,91.1,95,100.7,116.7
	c21.8-9.8,21.6-107.9,9.7-146.8C1217,577,1019.4,381.3,1019.4,381.3z"/>
<polygon class="st23" points="1333,521.9 1125.3,496.8 995.2,744.7 1163.6,744.7 "/>
<path class="st25" d="M1163.6,744.7L1333,521.9l-207.7-25.1l-3.7,7.1c32.5,8.5,95.3,28.4,104.6,57.3c10,30.8-62.6,138.8-94,183.6
	H1163.6z"/>
<polygon class="st23" points="1117.6,485.5 985.2,740.3 995.2,744.7 1125.3,496.8 1333,521.9 1320.4,512 "/>
<g>
	<polygon class="st26" points="1486.7,480.1 1498.3,524.5 1535.7,510 1529,470.7 	"/>
	<g>
		<path class="st14" d="M1319.6,379.4c-3.2-4.6-25.1-32.7-28.9-30.1c-3.7,2.6,9.7,21.5,11.8,24.4c0,0-7.7-0.6-11.5,8
			c-2.5,5.8,13.4,33.4,20.1,44.3c5.8-1.8,14.5-8.8,14.2-14.9C1325.4,399.8,1322.1,382.9,1319.6,379.4z"/>
		<path class="st19" d="M1519.4,472.8l-32.7,7.3l4.2,16.2c8.2-1.4,16.7-5.9,21.8-14.7C1514.1,479.3,1516.6,476.3,1519.4,472.8z"/>
		<polygon class="st26" points="1475.8,1146 1471.3,1171.4 1451.2,1172.9 1454.6,1128.2 		"/>
		<path class="st27" d="M1474.8,1167.5c0,0-18.5,0.3-22.6-2.9c-4.1-3.2-8.3,3-14.9,11.3c-6.6,8.3-31,7.3-34,13.8
			c-2.3,5,70.3,3.5,74,3.4C1479.8,1193.1,1474.8,1167.5,1474.8,1167.5z"/>
		<polygon class="st26" points="1530.1,1142 1525.7,1167.4 1505.6,1168.9 1509,1124.3 		"/>
		<path class="st27" d="M1529.1,1163.5c0,0-18.5,0.3-22.6-2.9s-8.3,3-14.9,11.3c-6.6,8.3-29.7,9.5-32.9,15.9
			c-3.3,6.4,69.7,5.4,71.3,3.3C1531.6,1189.1,1529.1,1163.5,1529.1,1163.5z"/>
		<path class="st28" d="M1487.7,795.7l2.1,182.2L1504,1155l26.6,4.5c0,0,22.1-313,45-347.5c22.9-34.5-3-91.6-3.2-91.7c0,0,0,0,0,0
			L1487.7,795.7z"/>
		<path class="st29" d="M1563.1,805.8c9.9-14.9,17.1-34.6,15.3-57c-0.6-7.3-12.3-15.3-13.7-21.5l-76.9,68.4l2.1,182.2l7.9,98.7
			c14.2-85,40.5-207,45.8-242C1545.8,831.4,1553.3,820.5,1563.1,805.8z"/>
		<path class="st30" d="M1457.2,710.5c0,0-13.5,166.2-14.6,221.8c-1.1,56.8,6,227.1,6,227.1l31.3,0.1c0,0,46.5-277,54.2-328.8
			c0,0-4.4,7.5,18.5-27.1c22.9-34.5,6.1-83.2,6-83.3c0,0-40.7,15.2-40.7,15.2L1457.2,710.5z"/>
		<path class="st31" d="M1598.2,629.9l-28.9,48.5l12.6,28.9c0,0,76.6-60.3,70.1-76.8c-5.5-13.9-82.1-96.1-102.8-118.7
			c-3.7-4.1-9.6-5.5-14.8-3.7l-35.5,12.3C1498.8,520.2,1601.4,619.2,1598.2,629.9z"/>
		<g>
			<path class="st32" d="M1467.7,507.4c0,0-9.1,233.9-32.4,281.3c0,0,105.9-15.6,154.5-15.6c0,0-1.1-198.1-24.6-242
				C1541.6,487.1,1490.6,495.2,1467.7,507.4z"/>
		</g>
		<path class="st33" d="M1521.2,593.6c22.7-12,29.9-28.7,30.4-49.9c0.3-15.4-51.4-7.4-85.4-5.2c-0.6,12-1.5,26.8-2.5,43.3
			C1476.8,596.1,1504.9,602.3,1521.2,593.6z"/>
		<path class="st32" d="M1348.2,517.2c0,0,73.3,62.8,131.7,60.5c58.4-2.4,66.1-16.4,71.1-32c5-15.6-28.3-36.9-61.7-43.3
			c-33.4-6.4-93-5.8-102.1-14.2s-56.2-71.9-60.1-82.9l-28.3,12.1L1348.2,517.2z"/>
		<path class="st14" d="M1501.9,407.7c0,0-9.9,4.9-18.4,17.4c-8.4,12.5-17.5,19.2-17.5,19.2l4,6.4c0,0-9,6.5-8.2,16.4
			c1.9,21.8,35.7,25.7,52.5,13c4.6-3.4,18.7-7.8,23.4-15.5C1550.1,443.8,1546.5,411.8,1501.9,407.7z"/>
		<path class="st20" d="M1518.4,454.4c0,0-11.2-20.8-5.9-35.4c0,0-12.3-0.2-22.2-5.8c-17.8-10.1,3.8-47.5,30.6-20.8
			c0,0-2.3-18.1,16.6-14.9c18.9,3.2,25.8,10.8,22.4,28.8c-3.4,18,4.4,10,10.2,20.5c5.8,10.5-24.6,48.2-38.8,49.6s-14.2,1.4-14.2,1.4
			s20.3-11.4,14.6-20C1526.1,449.2,1518.4,454.4,1518.4,454.4z"/>
	</g>
</g>
<path class="st14" d="M1080.2,659.2c3.8-3,35.4,16.6,53.6,28.4c0-0.2,0.1-0.5,0.1-0.7c-17.1-12.7-47-27.8-40.2-32.2
	c3.5-2.2,78.6,28,78.7,28c7.9,3.6,8.3,3.9,16.4,7.5c-1.9-4.7-21.6-36.7-8.3-35.1l43.9,57.4c7.4,12.2,7.2,19.6,5.3,26
	c-2.3,7.8-13.3,28.8-31.2,33.1c-17.3,4.1-64.1-22.4-71.4-29.2c-7.9-6.8-61.6-53.7-53-66.8c0,0,44.8,43.7,49.5,38.3
	c0.3-1.3-44.3-30.8-47.7-42.4c-2.5-8.3,36.4,16.9,53.5,29.6C1114,688.4,1077.6,661.2,1080.2,659.2z"/>
<g>
	<path class="st34" d="M265,1192.4H127.2c-30.1,0-54.5-24.4-54.5-54.5V787.8c0-30.1,24.4-54.5,54.5-54.5H265
		c30.1,0,54.5,24.4,54.5,54.5v350.1C319.5,1168,295.1,1192.4,265,1192.4z"/>
	<path class="st35" d="M265,733.3h-7c30.1,0,54.5,24.4,54.5,54.5v350.1c0,30.1-24.4,54.5-54.5,54.5h7c30.1,0,54.5-24.4,54.5-54.5
		V787.8C319.5,757.7,295.1,733.3,265,733.3z"/>
	<path class="st36" d="M127.2,1185.4c-26.2,0-47.5-21.3-47.5-47.5V787.8c0-26.2,21.3-47.5,47.5-47.5H265c26.2,0,47.5,21.3,47.5,47.5
		v350.1c0,26.2-21.3,47.5-47.5,47.5H127.2z"/>
	<g>
		<path class="st11" d="M221.3,764.7h-46.4c-1.4,0-2.6-1.1-2.6-2.6c0-1.4,1.1-2.6,2.6-2.6h46.4c1.4,0,2.6,1.1,2.6,2.6
			C223.8,763.6,222.7,764.7,221.3,764.7z"/>
	</g>
	<g>
		<path class="st11" d="M226,781.7h-55.8c-1.6,0-2.8-1.3-2.8-2.8c0-1.6,1.3-2.8,2.8-2.8H226c1.6,0,2.8,1.3,2.8,2.8
			C228.8,780.5,227.5,781.7,226,781.7z"/>
	</g>
	<circle class="st11" cx="150.8" cy="778.9" r="3.9"/>
	<circle class="st37" cx="196.1" cy="1155.5" r="21"/>
	<circle class="st38" cx="192.6" cy="1155.5" r="21"/>
	<path class="st2" d="M287.5,1122.3H103.8c-6.2,0-11.2-5-11.2-11.2V827.9c0-6.2,5-11.2,11.2-11.2h183.6c6.2,0,11.2,5,11.2,11.2
		v283.3C298.7,1117.3,293.7,1122.3,287.5,1122.3z"/>
	<path class="st39" d="M97.3,1110.7V828.3c0-3.4,2.7-6.1,6.1-6.1h184.4c3.4,0,6.1,2.7,6.1,6.1v282.4c0,3.4-2.7,6.1-6.1,6.1H103.5
		C100.1,1116.9,97.3,1114.1,97.3,1110.7z"/>
	<path class="st9" d="M288.3,822.2H103c-3.1,0-5.7,3-5.7,6.6v42.7H294v-42.7C294,825.2,291.5,822.2,288.3,822.2z"/>
	<g>
		<rect x="143.3" y="880.6" class="st40" width="111.8" height="7.5"/>
	</g>
	<polygon class="st40" points="116.9,884.3 127.5,891.5 127.5,877.2 	"/>
	<polygon class="st40" points="273.7,884.3 263.1,891.5 263.1,877.2 	"/>
	<path class="st0" d="M161.1,857.8h-48.6c-5,0-9.1-4.1-9.1-9.1v-4.8c0-5,4.1-9.1,9.1-9.1h48.6c5,0,9.1,4.1,9.1,9.1v4.8
		C170.2,853.7,166.1,857.8,161.1,857.8z"/>
	<path class="st40" d="M279.6,857.8h-11.8c-2.6,0-4.7-2.1-4.7-4.7v-13.6c0-2.6,2.1-4.7,4.7-4.7h11.8c2.6,0,4.7,2.1,4.7,4.7v13.6
		C284.3,855.7,282.2,857.8,279.6,857.8z"/>
	<rect x="272" y="838.6" class="st39" width="3.4" height="14.9"/>
	<rect x="267.3" y="844" class="st39" width="12.7" height="4"/>
	<rect x="107.1" y="918.4" class="st41" width="21.8" height="188.1"/>
	<rect x="133.2" y="918.4" class="st41" width="21.8" height="188.1"/>
	<rect x="159.5" y="918.4" class="st41" width="21.8" height="188.1"/>
	<rect x="185.9" y="918.4" class="st41" width="21.8" height="188.1"/>
	<rect x="212.2" y="918.4" class="st41" width="21.8" height="188.1"/>
	<rect x="238.5" y="918.4" class="st41" width="21.8" height="188.1"/>
	<rect x="264.8" y="918.4" class="st41" width="21.8" height="188.1"/>
	<rect x="107.1" y="896.9" class="st40" width="21.8" height="14.3"/>
	<rect x="133.2" y="896.9" class="st40" width="21.8" height="14.3"/>
	<rect x="159.5" y="896.9" class="st40" width="21.8" height="14.3"/>
	<rect x="185.9" y="896.9" class="st40" width="21.8" height="14.3"/>
	<rect x="212.2" y="896.9" class="st40" width="21.8" height="14.3"/>
	<rect x="238.5" y="896.9" class="st42" width="21.8" height="14.3"/>
	<rect x="264.8" y="896.9" class="st42" width="21.8" height="14.3"/>
	<rect x="103.4" y="940.1" class="st39" width="185.3" height="4.7"/>
	<rect x="103.4" y="968.2" class="st39" width="185.3" height="4.7"/>
	<rect x="103.4" y="996.2" class="st39" width="185.3" height="4.7"/>
	<rect x="103.4" y="1024.3" class="st39" width="185.3" height="4.7"/>
	<rect x="103.4" y="1052.4" class="st39" width="185.3" height="4.7"/>
	<rect x="103" y="1080.5" class="st39" width="185.3" height="4.7"/>
	<path class="st43" d="M193.2,974.6l-17.8-7.7c0.6,0.8,23,28.1,22.4,27.4c4.5-10.1,14.5-32.5,19.1-42.8L193.2,974.6z"/>
</g>
</svg>
